<?xml version="1.0" standalone="no"?><!DOCTYPE svg PUBLIC "-//W3C//DTD SVG 1.1//EN" "http://www.w3.org/Graphics/SVG/1.1/DTD/svg11.dtd"><svg t="1704502388771" class="icon" viewBox="0 0 1024 1024" version="1.1" xmlns="http://www.w3.org/2000/svg" p-id="4526" xmlns:xlink="http://www.w3.org/1999/xlink" width="200" height="200"><path d="M176 752.7c0-16.2-9-30.2-22.4-37.8V451.1l380.6 235.7 425.4-263.5-425.4-263.4-425.4 263.5v291.5c-13.3 7.6-22.4 21.6-22.4 37.8 0 15.3 8.1 28.8 20.2 36.7L64 862.5h134.3l-42.6-73.1c12.2-7.9 20.3-21.3 20.3-36.7z m0 0" p-id="4527"></path><path d="M534.2 738.8L510.3 724 243.1 558.5v123.7l291.1 180.3 291.1-180.3V558.5L558.1 724l-23.9 14.8z m0 0" p-id="4528"></path></svg>