<?xml version="1.0" standalone="no"?><!DOCTYPE svg PUBLIC "-//W3C//DTD SVG 1.1//EN" "http://www.w3.org/Graphics/SVG/1.1/DTD/svg11.dtd"><svg t="1704795532666" class="icon" viewBox="0 0 1024 1024" version="1.1" xmlns="http://www.w3.org/2000/svg" p-id="6368" xmlns:xlink="http://www.w3.org/1999/xlink" width="200" height="200"><path d="M514.9 158.1v728.2H155.3v-571l359.6-157.2m38.5-58.8L116.9 290.1v634.6h436.5V99.3z"  p-id="6369"></path><path d="M553.3 475.7l315.4 93v317.6H553.3V475.7m-38.5-51.5v500.5h392.3V539.9L514.8 424.2zM365 390.6v57.7h-57.7v-57.7H365m38.4-38.5H268.8v134.6h134.6V352.1zM365 563.6v57.7h-57.7v-57.7H365m38.4-38.5H268.8v134.6h134.6V525.1zM365 732.1v153.8h-57.7V732.1H365m38.4-38.5H268.8v230.7h134.6V693.6z"  p-id="6370"></path><path d="M743.7 732.1v153.8H686V732.1h57.7m38.5-38.5H647.6v230.7h134.6V693.6z"  p-id="6371"></path></svg>
