<?xml version="1.0" standalone="no"?><!DOCTYPE svg PUBLIC "-//W3C//DTD SVG 1.1//EN" "http://www.w3.org/Graphics/SVG/1.1/DTD/svg11.dtd"><svg t="1704795579207" class="icon" viewBox="0 0 1024 1024" version="1.1" xmlns="http://www.w3.org/2000/svg" p-id="8692" xmlns:xlink="http://www.w3.org/1999/xlink" width="200" height="200"><path d="M150.353171 293.962927v306.001171c0 56.594732 41.859122 101.825561 93.958244 104.497951l4.920195 0.149853h23.576975v62.439025H249.256585c-87.464585 0-158.195512-71.530146-161.242536-161.092683l-0.099903-5.994146V293.937951h62.439025z"  p-id="8693"></path><path d="M196.133463 294.062829c41.58439-66.609951 133.369756-89.362732 171.907122-57.793561 20.030439 16.384 32.118634 37.038829 42.758244 70.581073l2.272781 7.367805c2.67239 8.99122 9.166049 35.44039 16.009366 63.912586l16.883512 71.255414 209.720195 50.151025-14.535805 60.715707-247.083707-59.067317-30.145561-126.926049a1565.895805 1565.895805 0 0 0-10.165073-40.33561l-0.549464-1.973073c-7.442732-25.075512-13.71161-37.338537-22.602927-45.530536l-2.097951-1.82322c2.247805 1.848195 0.62439 1.348683-2.772293 1.098927a75.276488 75.276488 0 0 0-23.37717 2.247805c-21.304195 5.269854-40.085854 18.107317-53.248 39.161756-7.417756 11.88839-15.98439 52.948293-24.650927 115.761951l-4.745366 36.439415-14.236098 123.254634c-2.197854 18.781659-2.972098 32.468293-2.048 45.655415 2.197854 31.294439 12.737561 47.378732 39.411513 52.498731l2.547512 0.39961h233.571902l71.030634 302.129951-60.790634 14.311025-59.691707-254.001952H242.862829l-4.32078-0.299707c-62.86361-8.766439-93.208976-50.97522-97.404878-110.641951-1.098927-15.684683-0.499512-30.72 1.398634-49.176976l15.634732-135.043122 2.397658-18.956487c10.739512-82.794146 20.804683-131.69639 35.565268-155.373269zM406.75278 7.342829c-60.216195 0-108.843707 49.351805-108.843707 110.017561 0 60.64078 48.627512 109.992585 108.843707 109.992586 60.216195 0 108.843707-49.351805 108.843708-109.992586 0-60.665756-48.627512-110.017561-108.843708-110.017561z m0 62.439025c25.525073 0 46.404683 21.179317 46.404683 47.578536 0 26.374244-20.87961 47.553561-46.404683 47.553561-25.525073 0-46.404683-21.179317-46.404682-47.553561 0-26.39922 20.87961-47.578537 46.404682-47.578536z"  p-id="8694"></path><path d="M303.50361 486.025366l61.689756 9.490732-13.012293 84.667317 158.120586 27.47317c8.81639 1.998049 19.805659 6.493659 31.044682 14.710635l4.820293 3.746341c14.036293 11.613659 24.625951 27.123512 30.345366 47.528585l1.548488 6.243903 53.522732 312.94439-61.539903 10.514732-53.223024-311.420878a30.295415 30.295415 0 0 0-10.439805-17.682732 42.758244 42.758244 0 0 0-6.54361-4.420683l-1.823219-0.999024-186.667708-32.343415a31.219512 31.219512 0 0 1-25.82478-32.36839l0.324683-3.146927 17.657756-114.912781z"  p-id="8695"></path><path d="M299.457561 376.682146a31.219512 31.219512 0 0 1 38.012878 17.457952l1.123902 2.997073 46.154927 147.156292a31.219512 31.219512 0 0 1-58.442927 21.67883l-1.123902-2.997073L278.977561 415.843902a31.219512 31.219512 0 0 1 20.48-39.13678z"  p-id="8696"></path><path d="M945.226927 522.090146v62.439025H311.246049v-62.439025z"  p-id="8697"></path><path d="M909.212098 562.900293v441.893463h-62.439025V562.900293zM294.412488 735.831415V1004.76878h-62.439025V735.781463z"  p-id="8698"></path></svg>
